<mxfile host="65bd71144e">
    <diagram id="lnBdcAsuuI5BvBr5o2wi" name="Page-1">
        <mxGraphModel dx="1222" dy="648" grid="1" gridSize="10" guides="1" tooltips="1" connect="1" arrows="1" fold="1" page="1" pageScale="1" pageWidth="850" pageHeight="1100" math="0" shadow="0">
            <root>
                <mxCell id="0"/>
                <mxCell id="1" parent="0"/>
                <mxCell id="oSQUYnhXIT-6xbtQuUzK-5" value="CDK" style="sketch=0;points=[[0,0,0],[0.25,0,0],[0.5,0,0],[0.75,0,0],[1,0,0],[0,1,0],[0.25,1,0],[0.5,1,0],[0.75,1,0],[1,1,0],[0,0.25,0],[0,0.5,0],[0,0.75,0],[1,0.25,0],[1,0.5,0],[1,0.75,0]];outlineConnect=0;fontColor=#232F3E;gradientColor=#4D72F3;gradientDirection=north;fillColor=#3334B9;strokeColor=#ffffff;dashed=0;verticalLabelPosition=bottom;verticalAlign=top;align=center;html=1;fontSize=12;fontStyle=0;aspect=fixed;shape=mxgraph.aws4.resourceIcon;resIcon=mxgraph.aws4.cloud_development_kit;labelBackgroundColor=#FFFFFF;" parent="1" vertex="1">
                    <mxGeometry x="10" y="10" width="78" height="78" as="geometry"/>
                </mxCell>
                <mxCell id="oSQUYnhXIT-6xbtQuUzK-7" value="Lambda" style="sketch=0;points=[[0,0,0],[0.25,0,0],[0.5,0,0],[0.75,0,0],[1,0,0],[0,1,0],[0.25,1,0],[0.5,1,0],[0.75,1,0],[1,1,0],[0,0.25,0],[0,0.5,0],[0,0.75,0],[1,0.25,0],[1,0.5,0],[1,0.75,0]];outlineConnect=0;fontColor=#232F3E;gradientColor=#F78E04;gradientDirection=north;fillColor=#D05C17;strokeColor=#ffffff;dashed=0;verticalLabelPosition=bottom;verticalAlign=top;align=center;html=1;fontSize=12;fontStyle=0;aspect=fixed;shape=mxgraph.aws4.resourceIcon;resIcon=mxgraph.aws4.lambda;labelBackgroundColor=#FFFFFF;" parent="1" vertex="1">
                    <mxGeometry x="110" y="10" width="78" height="78" as="geometry"/>
                </mxCell>
                <mxCell id="oSQUYnhXIT-6xbtQuUzK-8" value="API Gateway" style="sketch=0;points=[[0,0,0],[0.25,0,0],[0.5,0,0],[0.75,0,0],[1,0,0],[0,1,0],[0.25,1,0],[0.5,1,0],[0.75,1,0],[1,1,0],[0,0.25,0],[0,0.5,0],[0,0.75,0],[1,0.25,0],[1,0.5,0],[1,0.75,0]];outlineConnect=0;fontColor=#232F3E;gradientColor=#FF4F8B;gradientDirection=north;fillColor=#BC1356;strokeColor=#ffffff;dashed=0;verticalLabelPosition=bottom;verticalAlign=top;align=center;html=1;fontSize=12;fontStyle=0;aspect=fixed;shape=mxgraph.aws4.resourceIcon;resIcon=mxgraph.aws4.api_gateway;labelBackgroundColor=#FFFFFF;" parent="1" vertex="1">
                    <mxGeometry x="210" y="10" width="78" height="78" as="geometry"/>
                </mxCell>
                <mxCell id="oSQUYnhXIT-6xbtQuUzK-9" value="Endpoint" style="sketch=0;outlineConnect=0;fontColor=#232F3E;gradientColor=none;fillColor=#FF4F8B;strokeColor=none;dashed=0;verticalLabelPosition=bottom;verticalAlign=top;align=center;html=1;fontSize=12;fontStyle=0;aspect=fixed;pointerEvents=1;shape=mxgraph.aws4.endpoint;labelBackgroundColor=#FFFFFF;" parent="1" vertex="1">
                    <mxGeometry x="308" y="10" width="78" height="78" as="geometry"/>
                </mxCell>
                <mxCell id="oSQUYnhXIT-6xbtQuUzK-32" value="Halloween Discord Stack" style="swimlane;dashed=1;strokeWidth=1;swimlaneFillColor=none;fillColor=#050505;strokeColor=#FFFFFF;" parent="1" vertex="1">
                    <mxGeometry x="386" y="180" width="594" height="610" as="geometry">
                        <mxRectangle x="410" y="210" width="180" height="23" as="alternateBounds"/>
                    </mxGeometry>
                </mxCell>
                <mxCell id="oSQUYnhXIT-6xbtQuUzK-20" value="&lt;span style=&quot;&quot;&gt;CDK&lt;/span&gt;" style="sketch=0;points=[[0,0,0],[0.25,0,0],[0.5,0,0],[0.75,0,0],[1,0,0],[0,1,0],[0.25,1,0],[0.5,1,0],[0.75,1,0],[1,1,0],[0,0.25,0],[0,0.5,0],[0,0.75,0],[1,0.25,0],[1,0.5,0],[1,0.75,0]];outlineConnect=0;fontColor=#191919;gradientColor=#4D72F3;gradientDirection=north;fillColor=#3334B9;strokeColor=#ffffff;dashed=0;verticalLabelPosition=bottom;verticalAlign=top;align=center;html=1;fontSize=12;fontStyle=0;aspect=fixed;shape=mxgraph.aws4.resourceIcon;resIcon=mxgraph.aws4.cloud_development_kit;labelBackgroundColor=#FFFFFF;" parent="oSQUYnhXIT-6xbtQuUzK-32" vertex="1">
                    <mxGeometry x="552" y="30" width="30" height="30" as="geometry"/>
                </mxCell>
                <mxCell id="9752AHz9aHxP6KpXcJha-4" style="edgeStyle=orthogonalEdgeStyle;rounded=0;orthogonalLoop=1;jettySize=auto;html=1;exitX=1;exitY=0.5;exitDx=0;exitDy=0;exitPerimeter=0;" parent="oSQUYnhXIT-6xbtQuUzK-32" source="oSQUYnhXIT-6xbtQuUzK-58" target="9752AHz9aHxP6KpXcJha-1" edge="1">
                    <mxGeometry relative="1" as="geometry"/>
                </mxCell>
                <mxCell id="oSQUYnhXIT-6xbtQuUzK-58" value="Fulfillment Lambda" style="sketch=0;points=[[0,0,0],[0.25,0,0],[0.5,0,0],[0.75,0,0],[1,0,0],[0,1,0],[0.25,1,0],[0.5,1,0],[0.75,1,0],[1,1,0],[0,0.25,0],[0,0.5,0],[0,0.75,0],[1,0.25,0],[1,0.5,0],[1,0.75,0]];outlineConnect=0;fontColor=#232F3E;gradientColor=#F78E04;gradientDirection=north;fillColor=#D05C17;strokeColor=#ffffff;dashed=0;verticalLabelPosition=bottom;verticalAlign=top;align=center;html=1;fontSize=12;fontStyle=0;aspect=fixed;shape=mxgraph.aws4.resourceIcon;resIcon=mxgraph.aws4.lambda;labelBackgroundColor=#FFFFFF;" parent="oSQUYnhXIT-6xbtQuUzK-32" vertex="1">
                    <mxGeometry x="35" y="490" width="78" height="78" as="geometry"/>
                </mxCell>
                <mxCell id="nwAnyemIVqj_rQVZ3xq--6" style="edgeStyle=orthogonalEdgeStyle;rounded=0;orthogonalLoop=1;jettySize=auto;html=1;exitX=1;exitY=0.25;exitDx=0;exitDy=0;exitPerimeter=0;entryX=0;entryY=0.25;entryDx=0;entryDy=0;entryPerimeter=0;" parent="oSQUYnhXIT-6xbtQuUzK-32" source="oSQUYnhXIT-6xbtQuUzK-73" target="oSQUYnhXIT-6xbtQuUzK-74" edge="1">
                    <mxGeometry relative="1" as="geometry"/>
                </mxCell>
                <mxCell id="oSQUYnhXIT-6xbtQuUzK-73" value="API Gateway" style="sketch=0;points=[[0,0,0],[0.25,0,0],[0.5,0,0],[0.75,0,0],[1,0,0],[0,1,0],[0.25,1,0],[0.5,1,0],[0.75,1,0],[1,1,0],[0,0.25,0],[0,0.5,0],[0,0.75,0],[1,0.25,0],[1,0.5,0],[1,0.75,0]];outlineConnect=0;fontColor=#232F3E;gradientColor=#FF4F8B;gradientDirection=north;fillColor=#BC1356;strokeColor=#ffffff;dashed=0;verticalLabelPosition=bottom;verticalAlign=top;align=center;html=1;fontSize=12;fontStyle=0;aspect=fixed;shape=mxgraph.aws4.resourceIcon;resIcon=mxgraph.aws4.api_gateway;labelBackgroundColor=#FFFFFF;" parent="oSQUYnhXIT-6xbtQuUzK-32" vertex="1">
                    <mxGeometry x="35" y="50" width="78" height="78" as="geometry"/>
                </mxCell>
                <mxCell id="nwAnyemIVqj_rQVZ3xq--15" style="edgeStyle=orthogonalEdgeStyle;rounded=0;orthogonalLoop=1;jettySize=auto;html=1;exitX=0.5;exitY=1;exitDx=0;exitDy=0;exitPerimeter=0;" parent="oSQUYnhXIT-6xbtQuUzK-32" source="oSQUYnhXIT-6xbtQuUzK-74" target="nwAnyemIVqj_rQVZ3xq--1" edge="1">
                    <mxGeometry relative="1" as="geometry"/>
                </mxCell>
                <mxCell id="oSQUYnhXIT-6xbtQuUzK-74" value="Interaction Handler" style="sketch=0;points=[[0,0,0],[0.25,0,0],[0.5,0,0],[0.75,0,0],[1,0,0],[0,1,0],[0.25,1,0],[0.5,1,0],[0.75,1,0],[1,1,0],[0,0.25,0],[0,0.5,0],[0,0.75,0],[1,0.25,0],[1,0.5,0],[1,0.75,0]];outlineConnect=0;fontColor=#232F3E;gradientColor=#F78E04;gradientDirection=north;fillColor=#D05C17;strokeColor=#ffffff;dashed=0;verticalLabelPosition=bottom;verticalAlign=top;align=center;html=1;fontSize=12;fontStyle=0;aspect=fixed;shape=mxgraph.aws4.resourceIcon;resIcon=mxgraph.aws4.lambda;labelBackgroundColor=#FFFFFF;" parent="oSQUYnhXIT-6xbtQuUzK-32" vertex="1">
                    <mxGeometry x="182" y="50" width="78" height="78" as="geometry"/>
                </mxCell>
                <mxCell id="oSQUYnhXIT-6xbtQuUzK-82" style="edgeStyle=orthogonalEdgeStyle;rounded=0;jumpStyle=sharp;orthogonalLoop=1;jettySize=auto;html=1;exitX=0.5;exitY=1;exitDx=0;exitDy=0;exitPerimeter=0;shadow=0;" parent="oSQUYnhXIT-6xbtQuUzK-32" source="oSQUYnhXIT-6xbtQuUzK-75" target="oSQUYnhXIT-6xbtQuUzK-58" edge="1">
                    <mxGeometry relative="1" as="geometry"/>
                </mxCell>
                <mxCell id="oSQUYnhXIT-6xbtQuUzK-75" value="Fulfillment Queue" style="sketch=0;points=[[0,0,0],[0.25,0,0],[0.5,0,0],[0.75,0,0],[1,0,0],[0,1,0],[0.25,1,0],[0.5,1,0],[0.75,1,0],[1,1,0],[0,0.25,0],[0,0.5,0],[0,0.75,0],[1,0.25,0],[1,0.5,0],[1,0.75,0]];outlineConnect=0;fontColor=#232F3E;gradientColor=#FF4F8B;gradientDirection=north;fillColor=#BC1356;strokeColor=#ffffff;dashed=0;verticalLabelPosition=bottom;verticalAlign=top;align=center;html=1;fontSize=12;fontStyle=0;aspect=fixed;shape=mxgraph.aws4.resourceIcon;resIcon=mxgraph.aws4.sqs;labelBackgroundColor=#FFFFFF;" parent="oSQUYnhXIT-6xbtQuUzK-32" vertex="1">
                    <mxGeometry x="35" y="350" width="78" height="78" as="geometry"/>
                </mxCell>
                <mxCell id="PQSC_l4jT2sE7PJyugXs-1" value="Fulfillment DLQ" style="sketch=0;points=[[0,0,0],[0.25,0,0],[0.5,0,0],[0.75,0,0],[1,0,0],[0,1,0],[0.25,1,0],[0.5,1,0],[0.75,1,0],[1,1,0],[0,0.25,0],[0,0.5,0],[0,0.75,0],[1,0.25,0],[1,0.5,0],[1,0.75,0]];outlineConnect=0;fontColor=#232F3E;gradientColor=#FF4F8B;gradientDirection=north;fillColor=#BC1356;strokeColor=#ffffff;dashed=0;verticalLabelPosition=bottom;verticalAlign=top;align=center;html=1;fontSize=12;fontStyle=0;aspect=fixed;shape=mxgraph.aws4.resourceIcon;resIcon=mxgraph.aws4.sqs;labelBackgroundColor=#FFFFFF;" parent="oSQUYnhXIT-6xbtQuUzK-32" vertex="1">
                    <mxGeometry x="182" y="350" width="78" height="78" as="geometry"/>
                </mxCell>
                <mxCell id="3B48Or7UXeMlgIT2ND3F-3" style="edgeStyle=orthogonalEdgeStyle;rounded=0;orthogonalLoop=1;jettySize=auto;html=1;exitX=0;exitY=0.5;exitDx=0;exitDy=0;exitPerimeter=0;" parent="oSQUYnhXIT-6xbtQuUzK-32" source="3B48Or7UXeMlgIT2ND3F-1" target="9752AHz9aHxP6KpXcJha-1" edge="1">
                    <mxGeometry relative="1" as="geometry"/>
                </mxCell>
                <mxCell id="3B48Or7UXeMlgIT2ND3F-1" value="Migration Lambda" style="sketch=0;points=[[0,0,0],[0.25,0,0],[0.5,0,0],[0.75,0,0],[1,0,0],[0,1,0],[0.25,1,0],[0.5,1,0],[0.75,1,0],[1,1,0],[0,0.25,0],[0,0.5,0],[0,0.75,0],[1,0.25,0],[1,0.5,0],[1,0.75,0]];outlineConnect=0;fontColor=#232F3E;gradientColor=#F78E04;gradientDirection=north;fillColor=#D05C17;strokeColor=#ffffff;dashed=0;verticalLabelPosition=bottom;verticalAlign=top;align=center;html=1;fontSize=12;fontStyle=0;aspect=fixed;shape=mxgraph.aws4.resourceIcon;resIcon=mxgraph.aws4.lambda;labelBackgroundColor=#FFFFFF;" parent="oSQUYnhXIT-6xbtQuUzK-32" vertex="1">
                    <mxGeometry x="484" y="350" width="78" height="78" as="geometry"/>
                </mxCell>
                <mxCell id="nwAnyemIVqj_rQVZ3xq--3" style="edgeStyle=orthogonalEdgeStyle;rounded=0;orthogonalLoop=1;jettySize=auto;html=1;" parent="oSQUYnhXIT-6xbtQuUzK-32" source="nwAnyemIVqj_rQVZ3xq--1" target="9752AHz9aHxP6KpXcJha-1" edge="1">
                    <mxGeometry relative="1" as="geometry"/>
                </mxCell>
                <mxCell id="nwAnyemIVqj_rQVZ3xq--19" style="edgeStyle=orthogonalEdgeStyle;rounded=0;orthogonalLoop=1;jettySize=auto;html=1;" parent="oSQUYnhXIT-6xbtQuUzK-32" source="nwAnyemIVqj_rQVZ3xq--1" target="oSQUYnhXIT-6xbtQuUzK-75" edge="1">
                    <mxGeometry relative="1" as="geometry"/>
                </mxCell>
                <mxCell id="nwAnyemIVqj_rQVZ3xq--1" value="Command Processor" style="sketch=0;points=[[0,0,0],[0.25,0,0],[0.5,0,0],[0.75,0,0],[1,0,0],[0,1,0],[0.25,1,0],[0.5,1,0],[0.75,1,0],[1,1,0],[0,0.25,0],[0,0.5,0],[0,0.75,0],[1,0.25,0],[1,0.5,0],[1,0.75,0]];outlineConnect=0;fontColor=#232F3E;gradientColor=#F78E04;gradientDirection=north;fillColor=#D05C17;strokeColor=#ffffff;dashed=0;verticalLabelPosition=bottom;verticalAlign=top;align=center;html=1;fontSize=12;fontStyle=0;aspect=fixed;shape=mxgraph.aws4.resourceIcon;resIcon=mxgraph.aws4.lambda;labelBackgroundColor=#FFFFFF;" parent="oSQUYnhXIT-6xbtQuUzK-32" vertex="1">
                    <mxGeometry x="35" y="200" width="78" height="78" as="geometry"/>
                </mxCell>
                <mxCell id="PQSC_l4jT2sE7PJyugXs-2" style="edgeStyle=orthogonalEdgeStyle;rounded=0;orthogonalLoop=1;jettySize=auto;html=1;exitX=1;exitY=0.5;exitDx=0;exitDy=0;exitPerimeter=0;entryX=0;entryY=0.5;entryDx=0;entryDy=0;entryPerimeter=0;jumpStyle=none;" parent="oSQUYnhXIT-6xbtQuUzK-32" source="oSQUYnhXIT-6xbtQuUzK-75" target="PQSC_l4jT2sE7PJyugXs-1" edge="1">
                    <mxGeometry relative="1" as="geometry">
                        <mxPoint x="184" y="389" as="targetPoint"/>
                    </mxGeometry>
                </mxCell>
                <mxCell id="nwAnyemIVqj_rQVZ3xq--25" value="Public-facing VPC" style="swimlane;" parent="oSQUYnhXIT-6xbtQuUzK-32" vertex="1">
                    <mxGeometry x="280" y="304" width="175" height="146" as="geometry"/>
                </mxCell>
                <mxCell id="9752AHz9aHxP6KpXcJha-1" value="PG RDS" style="sketch=0;points=[[0,0,0],[0.25,0,0],[0.5,0,0],[0.75,0,0],[1,0,0],[0,1,0],[0.25,1,0],[0.5,1,0],[0.75,1,0],[1,1,0],[0,0.25,0],[0,0.5,0],[0,0.75,0],[1,0.25,0],[1,0.5,0],[1,0.75,0]];outlineConnect=0;fontColor=#232F3E;gradientColor=#4D72F3;gradientDirection=north;fillColor=#3334B9;strokeColor=#ffffff;dashed=0;verticalLabelPosition=bottom;verticalAlign=top;align=center;html=1;fontSize=12;fontStyle=0;aspect=fixed;shape=mxgraph.aws4.resourceIcon;resIcon=mxgraph.aws4.dynamodb;labelBackgroundColor=#FFFFFF;" parent="nwAnyemIVqj_rQVZ3xq--25" vertex="1">
                    <mxGeometry x="44" y="46" width="78" height="78" as="geometry"/>
                </mxCell>
                <mxCell id="nwAnyemIVqj_rQVZ3xq--9" style="edgeStyle=orthogonalEdgeStyle;rounded=0;orthogonalLoop=1;jettySize=auto;html=1;" parent="1" source="oSQUYnhXIT-6xbtQuUzK-19" target="oSQUYnhXIT-6xbtQuUzK-76" edge="1">
                    <mxGeometry relative="1" as="geometry"/>
                </mxCell>
                <mxCell id="oSQUYnhXIT-6xbtQuUzK-19" value="Discord Server" style="shape=image;html=1;verticalAlign=top;verticalLabelPosition=bottom;labelBackgroundColor=#FFFFFF;imageAspect=0;aspect=fixed;image=https://cdn4.iconfinder.com/data/icons/logos-and-brands/512/91_Discord_logo_logos-128.png;imageBorder=#6666FF;fontColor=#030303;" parent="1" vertex="1">
                    <mxGeometry x="150" y="645" width="128" height="128" as="geometry"/>
                </mxCell>
                <mxCell id="nwAnyemIVqj_rQVZ3xq--10" style="edgeStyle=orthogonalEdgeStyle;rounded=0;orthogonalLoop=1;jettySize=auto;html=1;" parent="1" source="oSQUYnhXIT-6xbtQuUzK-76" target="oSQUYnhXIT-6xbtQuUzK-73" edge="1">
                    <mxGeometry relative="1" as="geometry"/>
                </mxCell>
                <mxCell id="oSQUYnhXIT-6xbtQuUzK-76" value="POST /" style="sketch=0;outlineConnect=0;fontColor=#232F3E;gradientColor=none;fillColor=#FF4F8B;strokeColor=none;dashed=0;verticalLabelPosition=bottom;verticalAlign=middle;align=center;html=1;fontSize=12;fontStyle=0;aspect=fixed;pointerEvents=1;shape=mxgraph.aws4.endpoint;labelBackgroundColor=#FFFFFF;labelPosition=center;labelBorderColor=none;" parent="1" vertex="1">
                    <mxGeometry x="175" y="230" width="78" height="78" as="geometry"/>
                </mxCell>
                <mxCell id="3B48Or7UXeMlgIT2ND3F-5" style="edgeStyle=orthogonalEdgeStyle;rounded=0;orthogonalLoop=1;jettySize=auto;html=1;" parent="1" source="3B48Or7UXeMlgIT2ND3F-4" target="3B48Or7UXeMlgIT2ND3F-1" edge="1">
                    <mxGeometry relative="1" as="geometry"/>
                </mxCell>
                <mxCell id="3B48Or7UXeMlgIT2ND3F-4" value="AWS Console" style="sketch=0;points=[[0,0,0],[0.25,0,0],[0.5,0,0],[0.75,0,0],[1,0,0],[0,1,0],[0.25,1,0],[0.5,1,0],[0.75,1,0],[1,1,0],[0,0.25,0],[0,0.5,0],[0,0.75,0],[1,0.25,0],[1,0.5,0],[1,0.75,0]];points=[[0,0,0],[0.25,0,0],[0.5,0,0],[0.75,0,0],[1,0,0],[0,1,0],[0.25,1,0],[0.5,1,0],[0.75,1,0],[1,1,0],[0,0.25,0],[0,0.5,0],[0,0.75,0],[1,0.25,0],[1,0.5,0],[1,0.75,0]];outlineConnect=0;fontColor=#232F3E;gradientColor=#F34482;gradientDirection=north;fillColor=#BC1356;strokeColor=#ffffff;dashed=0;verticalLabelPosition=bottom;verticalAlign=top;align=center;html=1;fontSize=12;fontStyle=0;aspect=fixed;shape=mxgraph.aws4.resourceIcon;resIcon=mxgraph.aws4.management_console;labelBackgroundColor=#FFFFFF;" parent="1" vertex="1">
                    <mxGeometry x="1020" y="530" width="78" height="78" as="geometry"/>
                </mxCell>
                <mxCell id="nwAnyemIVqj_rQVZ3xq--7" style="edgeStyle=orthogonalEdgeStyle;rounded=0;orthogonalLoop=1;jettySize=auto;html=1;exitX=0;exitY=0.75;exitDx=0;exitDy=0;exitPerimeter=0;" parent="1" source="oSQUYnhXIT-6xbtQuUzK-74" edge="1">
                    <mxGeometry relative="1" as="geometry">
                        <mxPoint x="500" y="288.28571428571433" as="targetPoint"/>
                    </mxGeometry>
                </mxCell>
                <mxCell id="3" style="edgeStyle=orthogonalEdgeStyle;rounded=0;orthogonalLoop=1;jettySize=auto;html=1;entryX=1;entryY=0.75;entryDx=0;entryDy=0;" edge="1" parent="1" source="2" target="oSQUYnhXIT-6xbtQuUzK-19">
                    <mxGeometry relative="1" as="geometry"/>
                </mxCell>
                <mxCell id="2" value="Application Command CLI" style="verticalLabelPosition=bottom;html=1;verticalAlign=top;align=center;strokeColor=none;fillColor=#00BEF2;shape=mxgraph.azure.computer;pointerEvents=1;" vertex="1" parent="1">
                    <mxGeometry x="410" y="810" width="100" height="90" as="geometry"/>
                </mxCell>
                <mxCell id="4" style="edgeStyle=orthogonalEdgeStyle;rounded=0;orthogonalLoop=1;jettySize=auto;html=1;entryX=1;entryY=0.5;entryDx=0;entryDy=0;" edge="1" parent="1" source="oSQUYnhXIT-6xbtQuUzK-58" target="oSQUYnhXIT-6xbtQuUzK-19">
                    <mxGeometry relative="1" as="geometry"/>
                </mxCell>
                <mxCell id="5" style="edgeStyle=orthogonalEdgeStyle;rounded=0;orthogonalLoop=1;jettySize=auto;html=1;entryX=1;entryY=0.25;entryDx=0;entryDy=0;" edge="1" parent="1" source="nwAnyemIVqj_rQVZ3xq--1" target="oSQUYnhXIT-6xbtQuUzK-19">
                    <mxGeometry relative="1" as="geometry"/>
                </mxCell>
            </root>
        </mxGraphModel>
    </diagram>
</mxfile>